<svg width="256" height="256" viewBox="0 0 256 256" fill="none" xmlns="http://www.w3.org/2000/svg">
<path d="M74.6667 245.333C68.8 245.333 63.7796 243.246 59.6054 239.072C55.424 234.891 53.3334 229.867 53.3334 224V31.9998C53.3334 26.1332 55.424 21.1092 59.6054 16.9278C63.7796 12.7536 68.8 10.6665 74.6667 10.6665H181.333C187.2 10.6665 192.224 12.7536 196.405 16.9278C200.58 21.1092 202.667 26.1332 202.667 31.9998V224C202.667 229.867 200.58 234.891 196.405 239.072C192.224 243.246 187.2 245.333 181.333 245.333H74.6667ZM74.6667 213.333V224H181.333V213.333H74.6667ZM74.6667 192H181.333V63.9998H74.6667V192ZM74.6667 42.6665H181.333V31.9998H74.6667V42.6665ZM74.6667 42.6665V31.9998V42.6665ZM74.6667 213.333V224V213.333Z" fill="#2C3B8E"/>
</svg>
