<svg width="256" height="256" viewBox="0 0 256 256" fill="none" xmlns="http://www.w3.org/2000/svg">
<path d="M208 16H240V48H208V16ZM208 64H240V96H208V64ZM160 16H192V48H160V16ZM160 64H192V96H160V64Z" fill="#2C3B8E"/>
<path d="M224 128V176H32V48H128V32H32C27.7565 32 23.6869 33.6857 20.6863 36.6863C17.6857 39.6869 16 43.7565 16 48V176C16 180.243 17.6857 184.313 20.6863 187.314C23.6869 190.314 27.7565 192 32 192H96V224H64V240H192V224H160V192H224C228.243 192 232.313 190.314 235.314 187.314C238.314 184.313 240 180.243 240 176V128H224ZM144 224H112V192H144V224Z" fill="#2C3B8E"/>
</svg>
