<svg width="256" height="256" viewBox="0 0 256 256" fill="none" xmlns="http://www.w3.org/2000/svg">
<path d="M35.1573 219.754L103.04 151.872M188.523 121.685L168.203 182.645C167.878 183.622 167.323 184.507 166.584 185.224C165.845 185.94 164.944 186.468 163.957 186.762L39.392 223.786C38.2698 224.12 37.0776 224.139 35.9453 223.842C34.813 223.544 33.7838 222.942 32.9699 222.101C32.156 221.26 31.5884 220.211 31.329 219.069C31.0696 217.928 31.1283 216.737 31.4987 215.626L71.9467 94.3037C72.2366 93.4326 72.7105 92.6341 73.3362 91.9623C73.962 91.2905 74.725 90.7613 75.5733 90.4104L133.035 66.7517C134.203 66.2693 135.488 66.1435 136.727 66.3903C137.967 66.637 139.106 67.2453 140 68.1384L186.976 115.125C187.819 115.966 188.41 117.026 188.683 118.185C188.956 119.344 188.901 120.556 188.523 121.685V121.685Z" stroke="#2C3B8E" stroke-width="16" stroke-linecap="round" stroke-linejoin="round"/>
<path d="M189.781 117.931L219.947 87.7546C223.946 83.754 226.193 78.3287 226.193 72.6719C226.193 67.0151 223.946 61.5898 219.947 57.5892L197.333 34.9546C195.352 32.9727 193 31.4005 190.411 30.3279C187.822 29.2552 185.048 28.7031 182.245 28.7031C179.443 28.7031 176.668 29.2552 174.079 30.3279C171.491 31.4005 169.138 32.9727 167.157 34.9546L136.992 65.1306M125.664 129.237C124.178 127.752 122.414 126.573 120.472 125.77C118.53 124.966 116.45 124.553 114.348 124.553C112.247 124.554 110.166 124.968 108.225 125.773C106.284 126.577 104.52 127.756 103.035 129.243C101.549 130.729 100.371 132.493 99.5673 134.435C98.7636 136.376 98.3502 138.457 98.3507 140.558C98.3512 142.66 98.7656 144.74 99.5702 146.682C100.375 148.623 101.554 150.386 103.04 151.872C106.042 154.872 110.112 156.557 114.356 156.556C118.6 156.555 122.669 154.868 125.669 151.867C128.67 148.865 130.354 144.795 130.353 140.551C130.352 136.307 128.666 132.237 125.664 129.237Z" stroke="#2C3B8E" stroke-width="16" stroke-linecap="round" stroke-linejoin="round"/>
</svg>
