<svg width="256" height="256" viewBox="0 0 256 256" fill="none" xmlns="http://www.w3.org/2000/svg">
<path d="M184 116H152C149.878 116 147.843 115.157 146.343 113.657C144.843 112.157 144 110.122 144 108C144 105.878 144.843 103.844 146.343 102.343C147.843 100.843 149.878 100 152 100H184C186.122 100 188.157 100.843 189.657 102.343C191.157 103.844 192 105.878 192 108C192 110.122 191.157 112.157 189.657 113.657C188.157 115.157 186.122 116 184 116ZM104 100H96.0001V92.0002C96.0001 89.8785 95.1572 87.8436 93.6569 86.3433C92.1566 84.8431 90.1218 84.0002 88.0001 84.0002C85.8783 84.0002 83.8435 84.8431 82.3432 86.3433C80.8429 87.8436 80.0001 89.8785 80.0001 92.0002V100H72.0001C69.8783 100 67.8435 100.843 66.3432 102.343C64.8429 103.844 64.0001 105.878 64.0001 108C64.0001 110.122 64.8429 112.157 66.3432 113.657C67.8435 115.157 69.8783 116 72.0001 116H80.0001V124C80.0001 126.122 80.8429 128.157 82.3432 129.657C83.8435 131.157 85.8783 132 88.0001 132C90.1218 132 92.1566 131.157 93.6569 129.657C95.1572 128.157 96.0001 126.122 96.0001 124V116H104C106.122 116 108.157 115.157 109.657 113.657C111.157 112.157 112 110.122 112 108C112 105.878 111.157 103.844 109.657 102.343C108.157 100.843 106.122 100 104 100ZM218.3 223.4C216.224 223.798 214.114 223.999 212 224C202.478 223.997 193.345 220.222 186.6 213.5L186.1 213L145.5 167.8L110.6 168L69.9001 213L69.5001 213.5C62.7062 220.209 53.5482 223.98 44.0001 224C41.9187 224.004 39.8421 223.803 37.8001 223.4C33.139 222.591 28.6837 220.869 24.6903 218.333C20.6969 215.797 17.2443 212.496 14.5307 208.621C11.8172 204.746 9.89632 200.372 8.87853 195.752C7.86074 191.132 7.7661 186.357 8.60006 181.7L24.9001 97.8002V97.6002C27.3274 83.6942 34.5879 71.0923 45.4007 62.0176C56.2135 52.9429 69.8839 47.9785 84.0001 48.0002L172 47.7002C186.051 47.7091 199.652 52.6488 210.434 61.6581C221.216 70.6674 228.494 83.1749 231 97.0002C231.1 97.1002 231.1 97.1002 231.1 97.2002L247.4 181.6H247.5C249.158 191.014 247.016 200.701 241.542 208.537C236.068 216.373 227.71 221.718 218.3 223.4V223.4ZM172 151.7C183.67 151.7 194.861 147.064 203.113 138.813C211.364 130.561 216 119.37 216 107.7C216 96.0307 211.364 84.8391 203.113 76.5875C194.861 68.3359 183.67 63.7002 172 63.7002L84.0001 64.0002C73.7073 63.9728 63.7323 67.5629 55.8177 74.1432C47.9031 80.7235 42.5522 89.8755 40.7001 100C40.7156 100.173 40.6809 100.347 40.6001 100.5L24.3001 184.6C23.5788 188.768 24.1977 193.058 26.0677 196.852C27.9377 200.646 30.9625 203.75 34.7074 205.717C38.4523 207.684 42.7244 208.413 46.9097 207.799C51.0949 207.185 54.9777 205.26 58.0001 202.3L101.1 154.6C101.86 153.795 102.774 153.15 103.787 152.704C104.801 152.257 105.893 152.018 107 152L172 151.7ZM231.7 184.6L223 139.4C217.608 148.066 210.094 155.212 201.17 160.164C192.246 165.116 182.206 167.71 172 167.7H166.9L198 202.3C201.022 205.26 204.905 207.185 209.09 207.799C213.276 208.413 217.548 207.684 221.293 205.717C225.038 203.75 228.062 200.646 229.932 196.852C231.802 193.058 232.421 188.768 231.7 184.6V184.6Z" fill="#2C3B8E"/>
</svg>
